<svg xmlns="http://www.w3.org/2000/svg" width="256" height="256" viewBox="0 0 100 100"><rect width="100" height="100" rx="20" fill="#0a0a0a"></rect><path d="M49.95 85.60Q42.15 85.60 35 83.10Q27.85 80.60 23.95 76.50L23.95 76.50L26.85 70.80Q30.65 74.60 36.95 76.95Q43.25 79.30 49.95 79.30L49.95 79.30Q59.35 79.30 64.05 75.85Q68.75 72.40 68.75 66.90L68.75 66.90Q68.75 62.70 66.20 60.20Q63.65 57.70 59.95 56.35Q56.25 55 49.65 53.40L49.65 53.40Q41.75 51.40 37.05 49.55Q32.35 47.70 29 43.90Q25.65 40.10 25.65 33.60L25.65 33.60Q25.65 28.30 28.45 23.95Q31.25 19.60 37.05 17Q42.85 14.40 51.45 14.40L51.45 14.40Q57.45 14.40 63.20 16.05Q68.95 17.70 73.15 20.60L73.15 20.60L70.65 26.50Q66.25 23.60 61.25 22.15Q56.25 20.70 51.45 20.70L51.45 20.70Q42.25 20.70 37.60 24.25Q32.95 27.80 32.95 33.40L32.95 33.40Q32.95 37.60 35.50 40.15Q38.05 42.70 41.90 44.05Q45.75 45.40 52.25 47L52.25 47Q59.95 48.90 64.70 50.75Q69.45 52.60 72.75 56.35Q76.05 60.10 76.05 66.50L76.05 66.50Q76.05 71.80 73.20 76.15Q70.35 80.50 64.45 83.05Q58.55 85.60 49.95 85.60L49.95 85.60Z" fill="#ff9cbe"></path></svg>